<svg xmlns="http://www.w3.org/2000/svg" viewBox="0 0 64 64">
  <style>
    circle { fill: #a34a1f; } path { fill: #fffefb; }
    @media (prefers-color-scheme: dark) { circle { fill: #cf7743; } path { fill: #121110; } }
  </style>
  <circle cx="32" cy="32" r="32"/>
  <path d="M27.92 32.04Q27.92 28.51 26.01 26.82Q24.1 25.14 20.73 25.14H17.37L17.21 23.83H21.35Q24.62 23.83 26.79 24.71Q28.97 25.59 30.05 27.35Q31.14 29.11 31.14 31.77Q31.14 34.61 29.86 36.59Q28.59 38.58 26.38 39.63Q24.17 40.68 21.39 40.68H17.21L17.37 39.37H21Q23.09 39.37 24.64 38.62Q26.19 37.87 27.06 36.26Q27.92 34.64 27.92 32.04ZM14 40.68V40.18L15.91 39.5V25.01L14 24.34V23.83H18.96V40.68ZM48.36 38.56 48.82 39.62V39.72Q47.86 40.13 46.81 40.4Q45.75 40.68 44.62 40.83Q43.49 40.97 42.29 40.97Q40.09 40.97 38.33 40.39Q36.57 39.81 35.32 38.7Q34.07 37.59 33.41 35.99Q32.74 34.4 32.74 32.37Q32.74 29.72 33.94 27.73Q35.13 25.74 37.36 24.64Q39.59 23.54 42.68 23.54Q43.61 23.54 44.45 23.65Q45.29 23.76 46.33 24.02L45.32 24.2L46.98 23.03H47.31L48.16 29.07L47.51 29.21L45 24.96L46.35 26.31Q45.37 25.57 44.36 25.21Q43.36 24.85 42.12 24.85Q40.63 24.85 39.47 25.27Q38.32 25.69 37.54 26.53Q36.75 27.37 36.34 28.61Q35.94 29.85 35.94 31.49Q35.94 34.16 36.8 35.99Q37.66 37.81 39.15 38.75Q40.64 39.68 42.51 39.68Q43.28 39.68 44.01 39.54Q44.74 39.41 45.35 39.14Q45.96 38.88 46.37 38.52L45.33 40.1V34.38L43.16 33.65V33.15H50V33.65L48.36 34.33Z"/>
</svg>
